<svg xmlns="http://www.w3.org/2000/svg" width="402" height="49" viewBox="0 0 402 49"><defs><style>.a{font-size:33px;font-family:BankGothic;}</style></defs><g transform="translate(-120 -27)"><path d="M33.307,29.1H9.805V23.271H40.111c-.8-2.474-3.357-4.771-7.864-4.771h-22C5.211,18.5,2.3,20.355,2.3,24.42v4.329c0,3.534,3,5.566,7.422,5.566H33.484V40.5H1.5c.8,3.357,3.357,5.125,7.952,5.125H33.4c5.036,0,7.51-1.944,7.51-6.1V35.2C40.906,31.4,37.99,29.368,33.307,29.1Z" transform="translate(118.5 24.58)"/><path d="M87.98,18.6H59V45.725h8.217V35.3H88.6c5.92,0,9.189-2.032,9.189-6.8v-3c-.088-4.418-3.8-6.892-9.807-6.892Zm2.651,8.659c0,1.944-.353,3-3.534,3H67.217l.088-7.068H86.743c3.534,0,3.976,1.06,3.976,2.916v1.149Z" transform="translate(111.804 24.569)"/><path d="M127.478,17.3l-4.948,6.1,8.394,11.574H113.429L109.1,39.565h25.269l4.329,6.008h9.719Z" transform="translate(105.834 24.72)"/><path d="M170.305,23.271h30.747c-.8-3.181-3.888-4.771-8.305-4.771H169.775C165.8,18.5,162,20.09,162,24.42v15.2c0,4.329,3.8,5.92,7.775,5.92h23.237c5.3,0,7.157-1.5,8.04-5.125H170.305V23.271Z" transform="translate(99.607 24.58)"/><path d="M227.205,41.8V33.494h16.522V28.9H218.9V46.924h36.667V41.8Z" transform="translate(92.911 23.369)"/><rect width="37.02" height="4.771" transform="translate(312.694 43.169)"/><path d="M285.9,18.6H273l15.2,11.133c2.209-1.5,4.771-3.092,7.068-4.418Zm18.731,13.872c-2.209,1.5-4.418,3.181-6.538,4.771l11.486,8.394h12.988Z" transform="translate(86.53 24.569)"/><path d="M384.209.7C313.526,4.8,280.835,35.264,273.5,42.48L272,43.905h13.076C320.418,8.183,371.222,1.858,384.209.7Z" transform="translate(86.556 26.3)"/><text class="a" transform="translate(421 68)"><tspan x="0" y="0">.INFO</tspan></text></g></svg>