<svg xmlns="http://www.w3.org/2000/svg" width="274" height="33" viewBox="0 0 274 33"><defs><style>.a,.b{fill:#fff;}.b{font-size:23px;font-family:BankGothic;}</style></defs><g transform="translate(-120 -27)"><path class="a" d="M22.938,25.646H7.1v-3.93H27.523c-.536-1.667-2.263-3.216-5.3-3.216H7.4C4,18.5,2.036,19.751,2.036,22.49v2.918c0,2.382,2.025,3.752,5,3.752H23.057v4.168H1.5c.536,2.263,2.263,3.454,5.359,3.454H23c3.394,0,5.062-1.31,5.062-4.109V29.755c0-2.561-1.965-3.93-5.121-4.109Z" transform="translate(118.5 19.338)"/><path class="a" d="M78.532,18.6H59V36.882h5.538V29.855H78.949c3.99,0,6.193-1.37,6.193-4.585V23.245c-.06-2.977-2.561-4.645-6.61-4.645Zm1.786,5.836c0,1.31-.238,2.025-2.382,2.025h-13.4L64.6,21.7H77.7c2.382,0,2.68.715,2.68,1.965v.774Z" transform="translate(95.241 19.298)"/><path class="a" d="M121.486,17.3l-3.335,4.109,5.657,7.8H112.018l-2.918,3.1h17.031l2.918,4.049h6.55Z" transform="translate(74.884 19.823)"/><path class="a" d="M167.6,21.716h20.723c-.536-2.144-2.62-3.216-5.6-3.216H167.24c-2.68,0-5.24,1.072-5.24,3.99V32.732c0,2.918,2.561,3.99,5.24,3.99H182.9c3.573,0,4.823-1.012,5.419-3.454H167.6V21.716Z" transform="translate(53.441 19.338)"/><path class="a" d="M224.5,37.594V32h11.136V28.9H218.9V41.048h24.713V37.594Z" transform="translate(30.378 15.131)"/><rect class="a" width="24.951" height="3.216" transform="translate(249.873 37.898)"/><path class="a" d="M281.694,18.6H273l10.242,7.5c1.489-1.012,3.216-2.084,4.764-2.977Zm12.624,9.349c-1.489,1.012-2.977,2.144-4.407,3.216l7.741,5.657h8.754Z" transform="translate(8.439 19.298)"/><path class="a" d="M347.628.7C299.988,3.462,277.955,24,273.012,28.859L272,29.82h8.813C304.633,5.743,338.874,1.481,347.628.7Z" transform="translate(8.783 26.3)"/><text class="b" transform="translate(323 55)"><tspan x="0" y="0">.INFO</tspan></text></g></svg>